<svg width="48" height="48" viewBox="0 0 48 48" fill="none" xmlns="http://www.w3.org/2000/svg">
<path d="M12.6663 35.5006C12.6663 36.5547 13.5287 37.4172 14.5828 37.4172H16.4994V44.1251C16.4994 45.7159 17.7835 47 19.3743 47C20.965 47 22.2491 45.7159 22.2491 44.1251V37.4172H26.0822V44.1251C26.0822 45.7159 27.3663 47 28.9571 47C30.5478 47 31.8319 45.7159 31.8319 44.1251V37.4172H33.7485C34.8026 37.4172 35.6651 36.5547 35.6651 35.5006V16.3349H12.6663V35.5006ZM7.87485 16.3349C6.2841 16.3349 5 17.619 5 19.2098V32.6257C5 34.2165 6.2841 35.5006 7.87485 35.5006C9.4656 35.5006 10.7497 34.2165 10.7497 32.6257V19.2098C10.7497 17.619 9.4656 16.3349 7.87485 16.3349ZM40.4565 16.3349C38.8657 16.3349 37.5816 17.619 37.5816 19.2098V32.6257C37.5816 34.2165 38.8657 35.5006 40.4565 35.5006C42.0472 35.5006 43.3313 34.2165 43.3313 32.6257V19.2098C43.3313 17.619 42.0472 16.3349 40.4565 16.3349ZM30.9311 5.14218L33.4323 2.64106C33.806 2.26733 33.806 1.66361 33.4323 1.28988C33.0585 0.91615 32.4548 0.91615 32.0811 1.28988L29.2446 4.11682C27.7113 3.35977 25.996 2.91896 24.1657 2.91896C22.3258 2.91896 20.6009 3.35977 19.058 4.1264L16.2119 1.2803C15.8382 0.906567 15.2345 0.906567 14.8607 1.2803C14.487 1.65403 14.487 2.25775 14.8607 2.63148L17.3714 5.14218C14.5253 7.24082 12.6663 10.614 12.6663 14.4184H35.6651C35.6651 10.6044 33.7964 7.23124 30.9311 5.14218ZM20.3325 10.5852H18.416V8.66866H20.3325V10.5852ZM29.9154 10.5852H27.9988V8.66866H29.9154V10.5852Z" fill="#333333"/>
</svg>
