<svg width="48" height="48" viewBox="0 0 48 48" fill="none" xmlns="http://www.w3.org/2000/svg">
<path fill-rule="evenodd" clip-rule="evenodd" d="M30.0425 8.46781C31.5427 6.53121 32.6799 3.79401 32.2686 1C29.8166 1.1704 26.9506 2.73915 25.2783 4.78394C23.7539 6.6367 22.501 9.39284 22.9904 12.0678C25.6709 12.1517 28.4374 10.5451 30.0425 8.46781ZM43.2917 34.7499C42.2189 37.1409 41.7027 38.2092 40.3208 40.327C38.3931 43.2833 35.675 46.9645 32.3035 46.9915C29.3112 47.024 28.5395 45.0306 24.4771 45.055C20.4147 45.0766 19.5678 47.0294 16.5701 46.9997C13.2013 46.9699 10.6257 43.6485 8.698 40.6922C3.30475 32.4319 2.73746 22.7354 6.06321 17.5774C8.42914 13.9152 12.1609 11.773 15.6667 11.773C19.2345 11.773 21.4794 13.7421 24.4341 13.7421C27.3001 13.7421 29.045 11.7676 33.1719 11.7676C36.296 11.7676 39.6057 13.4797 41.9608 16.4333C34.2393 20.6906 35.4895 31.7827 43.2917 34.7499Z" fill="#333333"/>
</svg>
