<svg width="48" height="48" viewBox="0 0 48 48" fill="none" xmlns="http://www.w3.org/2000/svg">
<path d="M21.8667 33.7999C21.8667 34.1199 22.08 34.3333 22.4 34.3333H41.0667C41.0667 34.0133 41.0667 33.5866 41.0667 33.2666H22.4C22.08 33.2666 21.8667 33.4799 21.8667 33.7999Z" fill="#333333"/>
<path d="M9.81333 21H0.48C0.213333 21 0 21.2133 0 21.4267V33.9067C0 34.12 0.213333 34.3333 0.48 34.3333H9.65333C9.92 34.3333 10.1333 34.12 10.1333 33.9067V21.32C10.1333 21.1067 9.97333 21 9.81333 21Z" fill="#333333"/>
<path d="M47.4668 23.6665H42.1334C41.8134 23.6665 41.6001 23.8798 41.6001 24.1998V33.7998C41.6001 34.1198 41.8134 34.3332 42.1334 34.3332H47.4668C47.7868 34.3332 48.0001 34.1198 48.0001 33.7998V24.1998C48.0001 23.8798 47.7868 23.6665 47.4668 23.6665Z" fill="#333333"/>
<path d="M17.8668 30.0667H22.9335V18.3333C22.9335 18.0133 23.1468 17.8 23.4668 17.8H28.2668V14.0667C28.2668 13.48 27.7868 13 27.2002 13H6.40016C5.8135 13 5.3335 13.48 5.3335 14.0667V20.4667H10.1335C10.4535 20.4667 10.6668 20.68 10.6668 21V30.0667H16.8002V33.2667H13.3335C13.0135 33.2667 12.8002 33.48 12.8002 33.8C12.8002 34.12 13.0135 34.3333 13.3335 34.3333H16.8002H17.8668H21.3335V33.2667H17.8668V30.0667Z" fill="#333333"/>
<path d="M44.2668 23.133V18.8663C44.2668 18.5463 44.0535 18.333 43.7335 18.333H24.0001C23.6801 18.333 23.4668 18.5463 23.4668 18.8663V32.1997C23.4668 32.5197 23.6801 32.733 24.0001 32.733H41.0668C41.0668 32.573 41.0668 23.133 41.0668 23.133C41.0668 23.133 44.1068 23.133 44.2668 23.133Z" fill="#333333"/>
</svg>
